# xmcd CD database file
#
# Track frame offsets:
#	150
#	13907
#	32180
#	47247
#	63062
#	79340
#	99047
#	113527
#	133445
#	146800
#	168290
#	184647
#	199755
#	229002
#
# Disc length: 3240 seconds
#
# Revision: 0
# Processed by: cddbd v1.5.1PL0 Copyright (c) Steve Scherf et al.
# Submitted via: CDex 1.51
#
DISCID=bb0ca60e
DTITLE=Hell's Kitchen - City Streets
DYEAR=1999
DGENRE=Blues
TTITLE0=Give Me Something to Eat
TTITLE1=I Need Luck
TTITLE2=Long, Long Legs
TTITLE3=Feet to the Fire
TTITLE4=Going to New York
TTITLE5=Alligator Eating Dog
TTITLE6=Goin' Down to New Orleans
TTITLE7=Bad Reputation
TTITLE8=My Baby Loves Me
TTITLE9=City Streets
TTITLE10=Blue, Blue Feeling
TTITLE11=Never Too Late
TTITLE12=I Don't Care
TTITLE13=Fishing Blues
EXTD=YEAR: 1999
EXTT0=
EXTT1=
EXTT2=
EXTT3=
EXTT4=
EXTT5=
EXTT6=
EXTT7=
EXTT8=
EXTT9=
EXTT10=
EXTT11=
EXTT12=
EXTT13=
PLAYORDER=
